<?xml version="1.0" encoding="UTF-8"?>
<svg xmlns="http://www.w3.org/2000/svg" width="256" height="256" viewBox="0 0 256 256">
  <defs>
    <linearGradient id="bg" x1="0" y1="0" x2="1" y2="1">
      <stop offset="0" stop-color="#222c44"/>
      <stop offset="1" stop-color="#0c1018"/>
    </linearGradient>
  </defs>

  <!-- app tile so the purple container pops -->
  <rect x="16" y="16" width="224" height="224" rx="48" fill="url(#bg)"/>

  <!-- ground shadow -->
  <ellipse cx="124" cy="206" rx="78" ry="13" fill="#000000" opacity="0.28"/>

  <!-- ===== isometric shipping container (depth vector +40,-32) ===== -->
  <!-- top face (lightest) -->
  <polygon points="56,96 96,64 216,64 176,96" fill="#8a8de0"/>
  <!-- right face (darkest) -->
  <polygon points="176,96 216,64 216,164 176,196" fill="#3c429a"/>
  <!-- front face (mid) -->
  <polygon points="56,96 176,96 176,196 56,196" fill="#5a5fc7"/>

  <!-- front corrugation -->
  <g stroke="#454aa8" stroke-width="3" opacity="0.5">
    <line x1="72"  y1="100" x2="72"  y2="192"/>
    <line x1="88"  y1="100" x2="88"  y2="192"/>
    <line x1="160" y1="100" x2="160" y2="192"/>
  </g>
  <!-- right-face corrugation (follows the slope) -->
  <g stroke="#2f3585" stroke-width="3" opacity="0.55">
    <line x1="189" y1="86"  x2="189" y2="186"/>
    <line x1="202" y1="75"  x2="202" y2="175"/>
  </g>

  <!-- corner castings -->
  <g fill="#2c317a">
    <rect x="52"  y="92"  width="12" height="10"/>
    <rect x="168" y="92"  width="12" height="10"/>
    <rect x="52"  y="186" width="12" height="10"/>
    <rect x="168" y="186" width="12" height="10"/>
  </g>

  <!-- Teams "T" stencilled on the front face -->
  <g fill="#ffffff">
    <rect x="80" y="118" width="72" height="18" rx="4"/>
    <rect x="107" y="118" width="18" height="62" rx="4"/>
  </g>

  <!-- padlock badge: sandboxed / locked-in -->
  <g transform="translate(170,158)">
    <circle cx="24" cy="24" r="27" fill="#36d399" stroke="#0c1018" stroke-width="3"/>
    <rect x="13" y="23" width="22" height="17" rx="3.5" fill="#0c1018"/>
    <path d="M16.5 23 v-4.5 a7.5 7.5 0 0 1 15 0 V23" fill="none" stroke="#0c1018" stroke-width="3.4"/>
  </g>
</svg>
