<?xml version="1.0" encoding="UTF-8" standalone="no"?>
<svg
   width="256"
   height="256"
   viewBox="0 0 256 256"
   version="1.1"
   id="svg57"
   sodipodi:docname="teams-lxd.svg"
   inkscape:version="1.2.2 (b0a8486541, 2022-12-01)"
   xmlns:inkscape="http://www.inkscape.org/namespaces/inkscape"
   xmlns:sodipodi="http://sodipodi.sourceforge.net/DTD/sodipodi-0.dtd"
   xmlns="http://www.w3.org/2000/svg"
   xmlns:svg="http://www.w3.org/2000/svg">
  <sodipodi:namedview
     id="namedview59"
     pagecolor="#ffffff"
     bordercolor="#000000"
     borderopacity="0.25"
     inkscape:showpageshadow="2"
     inkscape:pageopacity="0.0"
     inkscape:pagecheckerboard="0"
     inkscape:deskcolor="#d1d1d1"
     showgrid="false"
     inkscape:zoom="0.59376117"
     inkscape:cx="-96.840284"
     inkscape:cy="145.68147"
     inkscape:window-width="1609"
     inkscape:window-height="961"
     inkscape:window-x="0"
     inkscape:window-y="0"
     inkscape:window-maximized="1"
     inkscape:current-layer="svg57" />
  <defs
     id="defs7">
    <linearGradient
       id="bg"
       x1="0"
       y1="0"
       x2="1"
       y2="1">
      <stop
         offset="0"
         stop-color="#222c44"
         id="stop2" />
      <stop
         offset="1"
         stop-color="#0c1018"
         id="stop4" />
    </linearGradient>
  </defs>
  <!-- app tile so the purple container pops -->
  <rect
     x="16"
     y="16"
     width="224"
     height="224"
     rx="48"
     fill="url(#bg)"
     id="rect9" />
  <!-- ground shadow -->
  <ellipse
     cx="118"
     cy="206"
     rx="78"
     ry="13"
     fill="#000000"
     opacity="0.28"
     id="ellipse11" />
  <!-- ===== isometric shipping container (depth vector +40,-32) ===== -->
  <!-- top face (lightest) -->
  <polygon
     points="96,64 216,64 176,96 56,96 "
     fill="#8a8de0"
     id="polygon13"
     transform="translate(-6)" />
  <!-- right face (darkest) -->
  <polygon
     points="216,64 216,164 176,196 176,96 "
     fill="#3c429a"
     id="polygon15"
     transform="translate(-6)" />
  <!-- front face (mid) -->
  <polygon
     points="176,96 176,196 56,196 56,96 "
     fill="#5a5fc7"
     id="polygon17"
     transform="translate(-6)" />
  <!-- front corrugation -->
  <g
     stroke="#454aa8"
     stroke-width="3"
     opacity="0.5"
     id="g25"
     transform="translate(-6)">
    <line
       x1="72"
       y1="100"
       x2="72"
       y2="192"
       id="line19" />
    <line
       x1="88"
       y1="100"
       x2="88"
       y2="192"
       id="line21" />
    <line
       x1="160"
       y1="100"
       x2="160"
       y2="192"
       id="line23" />
  </g>
  <!-- right-face corrugation (follows the slope) -->
  <g
     stroke="#2f3585"
     stroke-width="3"
     opacity="0.55"
     id="g31"
     transform="translate(-6)">
    <line
       x1="189"
       y1="86"
       x2="189"
       y2="186"
       id="line27" />
    <line
       x1="202"
       y1="75"
       x2="202"
       y2="175"
       id="line29" />
  </g>
  <!-- corner castings -->
  <g
     fill="#2c317a"
     id="g41"
     transform="translate(-6)">
    <rect
       x="52"
       y="92"
       width="12"
       height="10"
       id="rect33" />
    <rect
       x="168"
       y="92"
       width="12"
       height="10"
       id="rect35" />
    <rect
       x="52"
       y="186"
       width="12"
       height="10"
       id="rect37" />
    <rect
       x="168"
       y="186"
       width="12"
       height="10"
       id="rect39" />
  </g>
  <!-- Teams "T" stencilled on the front face -->
  <g
     fill="#ffffff"
     id="g47"
     transform="translate(-6)">
    <rect
       x="80"
       y="118"
       width="72"
       height="18"
       rx="4"
       id="rect43" />
    <rect
       x="107"
       y="118"
       width="18"
       height="62"
       rx="4"
       id="rect45" />
  </g>
  <!-- padlock badge: sandboxed / locked-in -->
  <g
     transform="translate(164,158)"
     id="g55">
    <circle
       cx="24"
       cy="24"
       r="27"
       fill="#36d399"
       stroke="#0c1018"
       stroke-width="3"
       id="circle49" />
    <rect
       x="13"
       y="23"
       width="22"
       height="17"
       rx="3.5"
       fill="#0c1018"
       id="rect51" />
    <path
       d="m 16.5,23 v -4.5 a 7.5,7.5 0 0 1 15,0 V 23"
       fill="none"
       stroke="#0c1018"
       stroke-width="3.4"
       id="path53" />
  </g>
  <path
     style="opacity:0.982894;fill:#aa0000;stroke:#f9f9f9;stroke-width:1.20047"
     d="m 183.41574,206.92285 c -9.67616,-1.83311 -17.4962,-9.21646 -20.01636,-18.89859 -0.46507,-1.78674 -0.62494,-3.32225 -0.62494,-6.00237 0,-4.51892 0.65179,-7.22406 2.784,-11.55456 1.38727,-2.81751 1.87239,-3.46909 4.58077,-6.15243 5.02234,-4.97592 9.77075,-7.16642 16.38446,-7.55837 12.21262,-0.72376 23.23826,7.49767 26.10788,19.46771 0.80744,3.36807 0.81021,8.21575 0.007,11.5677 -1.83725,7.66339 -6.89866,13.79896 -14.1567,17.16114 -1.37723,0.63797 -3.38189,1.38344 -4.45482,1.65659 -2.79579,0.71177 -7.73708,0.85761 -10.61089,0.31318 z m 13.92202,-9.29987 c 1.62065,-0.83807 1.79089,-1.60786 1.79089,-8.09812 0,-6.06161 -0.15011,-6.95688 -1.33074,-7.93672 -0.37068,-0.30764 -0.46997,-1.04076 -0.46997,-3.47007 0,-4.30871 -0.5196,-5.79496 -2.83789,-8.11745 -1.44097,-1.44359 -2.17563,-1.92974 -3.57296,-2.36433 -4.73329,-1.47216 -9.90963,0.943 -11.57796,5.40201 -0.48254,1.28971 -0.61854,2.35649 -0.61854,4.8518 0,3.08063 -0.0304,3.23034 -0.82533,4.05934 l -0.82532,0.86076 -0.0926,6.17892 c -0.10241,6.83432 0.0365,7.58854 1.56927,8.52325 0.84665,0.51629 1.63755,0.56372 9.41753,0.56474 7.00628,9e-4 8.64738,-0.0786 9.37362,-0.45413 z"
     id="path411" />
  <path
     style="opacity:0.982894;fill:#aa0000;stroke:#f9f9f9;stroke-width:1.20047"
     d="m 182.3286,178.19538 c 0.008,-3.389 0.5827,-4.8806 2.38263,-6.18446 2.33165,-1.68904 5.18899,-1.46835 7.21457,0.55724 1.33984,1.33983 1.80072,2.8658 1.80072,5.96216 v 2.44116 h -5.70226 -5.70225 z"
     id="path413" />
</svg>
